<mxfile host="app.diagrams.net" modified="2023-08-07T13:25:24.415Z" agent="Mozilla/5.0 (Windows NT 10.0; Win64; x64) AppleWebKit/537.36 (KHTML, like Gecko) Chrome/115.0.0.0 Safari/537.36 Edg/115.0.1901.188" etag="peGsG4z4_7hmH7FYLm-Y" version="21.6.2" type="github">
  <diagram name="第 1 页" id="vjv6d5uPYaNtz-wtYlR8">
    <mxGraphModel dx="1236" dy="573" grid="1" gridSize="10" guides="1" tooltips="1" connect="1" arrows="1" fold="1" page="1" pageScale="1" pageWidth="827" pageHeight="1169" math="0" shadow="0">
      <root>
        <mxCell id="0" />
        <mxCell id="1" style="" parent="0" />
        <mxCell id="mSLUovQe3_9nCNvYuGnm-1" value="" style="rounded=0;whiteSpace=wrap;html=1;" vertex="1" parent="1">
          <mxGeometry x="239" y="160" width="40" height="40" as="geometry" />
        </mxCell>
        <mxCell id="mSLUovQe3_9nCNvYuGnm-2" value="" style="rounded=0;whiteSpace=wrap;html=1;" vertex="1" parent="1">
          <mxGeometry x="319" y="160" width="40" height="40" as="geometry" />
        </mxCell>
        <mxCell id="mSLUovQe3_9nCNvYuGnm-3" value="" style="rounded=0;whiteSpace=wrap;html=1;" vertex="1" parent="1">
          <mxGeometry x="399" y="160" width="40" height="40" as="geometry" />
        </mxCell>
        <mxCell id="mSLUovQe3_9nCNvYuGnm-4" value="" style="rounded=0;whiteSpace=wrap;html=1;" vertex="1" parent="1">
          <mxGeometry x="479" y="160" width="40" height="40" as="geometry" />
        </mxCell>
        <mxCell id="mSLUovQe3_9nCNvYuGnm-5" value="" style="rounded=0;whiteSpace=wrap;html=1;" vertex="1" parent="1">
          <mxGeometry x="599" y="160" width="40" height="40" as="geometry" />
        </mxCell>
        <mxCell id="mSLUovQe3_9nCNvYuGnm-6" value="" style="rounded=0;whiteSpace=wrap;html=1;" vertex="1" parent="1">
          <mxGeometry x="239" y="240" width="40" height="40" as="geometry" />
        </mxCell>
        <mxCell id="mSLUovQe3_9nCNvYuGnm-7" value="" style="rounded=0;whiteSpace=wrap;html=1;" vertex="1" parent="1">
          <mxGeometry x="319" y="240" width="40" height="40" as="geometry" />
        </mxCell>
        <mxCell id="mSLUovQe3_9nCNvYuGnm-8" value="" style="rounded=0;whiteSpace=wrap;html=1;" vertex="1" parent="1">
          <mxGeometry x="399" y="240" width="40" height="40" as="geometry" />
        </mxCell>
        <mxCell id="mSLUovQe3_9nCNvYuGnm-9" value="" style="rounded=0;whiteSpace=wrap;html=1;" vertex="1" parent="1">
          <mxGeometry x="479" y="240" width="40" height="40" as="geometry" />
        </mxCell>
        <mxCell id="mSLUovQe3_9nCNvYuGnm-10" value="" style="rounded=0;whiteSpace=wrap;html=1;" vertex="1" parent="1">
          <mxGeometry x="599" y="240" width="40" height="40" as="geometry" />
        </mxCell>
        <mxCell id="mSLUovQe3_9nCNvYuGnm-11" value="" style="rounded=0;whiteSpace=wrap;html=1;" vertex="1" parent="1">
          <mxGeometry x="239" y="320" width="40" height="40" as="geometry" />
        </mxCell>
        <mxCell id="mSLUovQe3_9nCNvYuGnm-12" value="" style="rounded=0;whiteSpace=wrap;html=1;" vertex="1" parent="1">
          <mxGeometry x="319" y="320" width="40" height="40" as="geometry" />
        </mxCell>
        <mxCell id="mSLUovQe3_9nCNvYuGnm-13" value="" style="rounded=0;whiteSpace=wrap;html=1;" vertex="1" parent="1">
          <mxGeometry x="399" y="320" width="40" height="40" as="geometry" />
        </mxCell>
        <mxCell id="mSLUovQe3_9nCNvYuGnm-14" value="" style="rounded=0;whiteSpace=wrap;html=1;" vertex="1" parent="1">
          <mxGeometry x="479" y="320" width="40" height="40" as="geometry" />
        </mxCell>
        <mxCell id="mSLUovQe3_9nCNvYuGnm-15" value="" style="rounded=0;whiteSpace=wrap;html=1;" vertex="1" parent="1">
          <mxGeometry x="599" y="320" width="40" height="40" as="geometry" />
        </mxCell>
        <mxCell id="mSLUovQe3_9nCNvYuGnm-16" value="" style="rounded=0;whiteSpace=wrap;html=1;" vertex="1" parent="1">
          <mxGeometry x="239" y="400" width="40" height="40" as="geometry" />
        </mxCell>
        <mxCell id="mSLUovQe3_9nCNvYuGnm-17" value="" style="rounded=0;whiteSpace=wrap;html=1;" vertex="1" parent="1">
          <mxGeometry x="319" y="400" width="40" height="40" as="geometry" />
        </mxCell>
        <mxCell id="mSLUovQe3_9nCNvYuGnm-18" value="" style="rounded=0;whiteSpace=wrap;html=1;" vertex="1" parent="1">
          <mxGeometry x="399" y="400" width="40" height="40" as="geometry" />
        </mxCell>
        <mxCell id="mSLUovQe3_9nCNvYuGnm-19" value="" style="rounded=0;whiteSpace=wrap;html=1;" vertex="1" parent="1">
          <mxGeometry x="479" y="400" width="40" height="40" as="geometry" />
        </mxCell>
        <mxCell id="mSLUovQe3_9nCNvYuGnm-20" value="" style="rounded=0;whiteSpace=wrap;html=1;" vertex="1" parent="1">
          <mxGeometry x="599" y="400" width="40" height="40" as="geometry" />
        </mxCell>
        <mxCell id="mSLUovQe3_9nCNvYuGnm-21" value="root" style="rounded=0;whiteSpace=wrap;html=1;" vertex="1" parent="1">
          <mxGeometry x="159" y="80" width="40" height="40" as="geometry" />
        </mxCell>
        <mxCell id="mSLUovQe3_9nCNvYuGnm-22" value="abc" parent="0" />
        <mxCell id="mSLUovQe3_9nCNvYuGnm-23" value="abc" style="text;html=1;strokeColor=none;fillColor=none;align=center;verticalAlign=middle;whiteSpace=wrap;rounded=0;" vertex="1" parent="mSLUovQe3_9nCNvYuGnm-22">
          <mxGeometry x="69" y="30" width="60" height="30" as="geometry" />
        </mxCell>
      </root>
    </mxGraphModel>
  </diagram>
</mxfile>
